<?xml version="1.0" standalone="no"?>
<!DOCTYPE svg PUBLIC "-//W3C//DTD SVG 20010904//EN"
 "http://www.w3.org/TR/2001/REC-SVG-20010904/DTD/svg10.dtd">
<svg version="1.0" xmlns="http://www.w3.org/2000/svg"
 width="700.000000pt" height="700.000000pt" viewBox="0 0 700.000000 700.000000"
 preserveAspectRatio="xMidYMid meet">
<metadata>
Created by potrace 1.14, written by Peter Selinger 2001-2017
</metadata>
<g transform="translate(0.000000,700.000000) scale(0.100000,-0.100000)"
fill="#000000" stroke="none">
<path d="M3325 5783 c-749 -95 -1313 -699 -1350 -1443 -2 -30 -3 -60 -4 -66 0
-6 -16 -11 -33 -10 -156 1 -361 -42 -543 -114 -286 -113 -561 -346 -725 -614
-79 -131 -165 -335 -183 -441 -3 -16 -8 -41 -11 -55 -23 -105 -29 -173 -27
-320 0 -74 3 -146 6 -160 2 -13 7 -40 10 -60 62 -415 322 -815 680 -1044 138
-89 314 -165 460 -200 188 -44 213 -45 1170 -42 501 1 928 6 950 10 399 74
701 246 949 541 210 249 344 601 350 920 l1 50 -770 1 c-674 1 -975 7 -994 19
-3 1 -24 6 -46 9 -65 10 -214 55 -300 91 -458 189 -792 587 -904 1075 -32 140
-48 326 -28 332 6 2 370 3 807 3 656 -1 894 -6 950 -20 3 -1 25 -5 50 -9 25
-5 53 -10 64 -12 23 -4 174 -52 201 -63 162 -69 265 -129 390 -226 115 -90
268 -255 330 -356 158 -260 240 -512 248 -758 2 -79 3 -81 27 -82 36 -1 110 2
131 6 10 2 43 6 74 10 69 7 222 46 307 79 419 157 751 496 906 926 28 77 60
212 78 330 8 53 8 300 0 338 -3 15 -8 45 -11 67 -21 186 -119 434 -240 615
-61 90 -77 111 -163 205 -61 67 -182 167 -275 228 -80 53 -264 147 -288 147
-5 0 -17 4 -27 9 -21 12 -133 46 -182 55 -19 4 -45 9 -56 12 -97 19 -252 22
-1049 22 -495 -1 -913 -3 -930 -5z"/>
</g>
</svg>
