<!--
    DO NOT EDIT THIS FILE
    It's generated automatically by 'yarn sprite' command.
    You have to re-generate 'sprite.svg' every time you
    modifying icons in 'assets/images/svg/' folder
    @preserve
-->
<svg xmlns="http://www.w3.org/2000/svg" xmlns:xlink="http://www.w3.org/1999/xlink"><symbol viewBox="0 0 31.8 28.3" id="svg-account-circle" xmlns="http://www.w3.org/2000/svg"><path fill-rule="evenodd" d="M20.325.059c-.826.12-1.726.559-2.366 1.154-.666.618-1.051 1.211-1.321 2.036l-.117.354-7.937.014-7.938.014-.2.162c-.295.238-.401.406-.432.68-.054.48.263.964.713 1.089.136.037 2.713.056 7.973.056h7.773l.115.379c.596 1.963 2.369 3.288 4.4 3.288 1.258 0 2.377-.478 3.267-1.397.538-.555.853-1.076 1.108-1.833l.148-.437h2.681c1.792 0 2.75-.02 2.891-.059.664-.184.931-1.077.473-1.583-.349-.386-.222-.372-3.297-.372h-2.756l-.112-.371c-.649-2.136-2.826-3.5-5.066-3.174m1.257 2.014c.902.19 1.74 1.011 1.947 1.908.071.309.07.876-.002 1.224-.153.734-.756 1.511-1.426 1.835-1.857.899-3.954-.658-3.663-2.718.149-1.058.987-2.022 1.954-2.251.287-.067.864-.066 1.19.002m-11.22 7.473c-1.774.185-3.382 1.53-3.869 3.239l-.087.303-2.845.015c-2.736.014-2.852.019-3.025.12a1.607 1.607 0 0 0-.345.31c-.148.183-.165.24-.165.565 0 .323.018.383.163.565.089.112.267.257.395.323.233.119.235.119 3.026.119h2.793l.115.384c.372 1.24 1.382 2.348 2.595 2.848.647.266 1.079.346 1.831.34.765-.007 1.226-.103 1.845-.383 1.225-.556 2.222-1.715 2.531-2.942l.063-.247h15.6l.233-.119a1.45 1.45 0 0 0 .395-.323c.145-.182.162-.242.162-.565 0-.325-.016-.382-.164-.565a1.607 1.607 0 0 0-.345-.31c-.177-.104-.288-.106-8.031-.119l-7.851-.014-.062-.251c-.164-.654-.628-1.444-1.164-1.979-.986-.987-2.361-1.463-3.794-1.314m1.059 2.012c1.047.194 1.904 1.103 2.037 2.162.107.856-.154 1.65-.732 2.225-.508.507-1.105.751-1.832.749-.697-.001-1.238-.215-1.745-.691-.578-.542-.829-1.12-.827-1.903.003-.775.21-1.28.745-1.818.649-.651 1.436-.893 2.354-.724m8.723 7.523a5.201 5.201 0 0 0-2.03.977 4.866 4.866 0 0 0-1.477 2.188l-.122.384-7.957.014-7.957.013-.201.154c-.549.419-.515 1.227.068 1.627l.187.128 7.912.013 7.912.014.058.225a4.61 4.61 0 0 0 3.209 3.298c.398.115.563.133 1.242.133.683 0 .843-.017 1.253-.136 1.49-.431 2.69-1.627 3.146-3.135l.116-.383 2.821-.015 2.821-.014.187-.128c.583-.4.617-1.208.068-1.627l-.201-.154-2.848-.014-2.848-.015-.116-.381c-.374-1.23-1.32-2.314-2.461-2.819-.666-.294-.966-.358-1.779-.378-.423-.01-.874.004-1.003.031m1.698 2.064c1.486.462 2.185 2.264 1.445 3.725-.168.33-.701.9-1.016 1.085a2.577 2.577 0 0 1-1.278.333 2.458 2.458 0 0 1-1.842-.771c-1.255-1.279-.87-3.436.758-4.245.594-.296 1.252-.339 1.933-.127"/></symbol><symbol viewBox="0 0 16 16" id="svg-add" xmlns="http://www.w3.org/2000/svg"><path fill-rule="evenodd" d="M7.04 3.52v3.52H0v1.92h7.04V16h1.92V8.96H16V7.04H8.96V0H7.04v3.52"/></symbol><symbol viewBox="0 0 12 12" id="svg-close" xmlns="http://www.w3.org/2000/svg"><path fill-rule="evenodd" d="M.605.605 0 1.21l2.395 2.395L4.79 6 2.395 8.395 0 10.79l.605.605.605.605 2.395-2.395L6 7.21l2.395 2.395L10.79 12l.605-.605.605-.605-2.395-2.395L7.21 6l2.395-2.395L12 1.21l-.605-.605L10.79 0 8.395 2.395 6 4.79 3.605 2.395 1.21 0 .605.605"/></symbol></svg>