<svg xmlns="http://www.w3.org/2000/svg" width="12" height="19">
  <path d="M5.685.021c-.306.054-.482.25-.525.583-.011.088-.019 1.779-.019 4.247L5.14 8.952l-.595.024c-1.737.069-2.869.248-3.405.538-.247.133-.387.269-.491.477-.405.804.182 2.407 1.741 4.759.691 1.042 1.296 1.814 1.899 2.419.514.516.917.788 1.319.891.303.077.591.036.922-.13.687-.344 1.675-1.431 2.708-2.98 1.101-1.651 1.771-2.99 1.964-3.92.054-.262.064-.657.02-.83-.159-.639-.772-.92-2.392-1.099a31.825 31.825 0 0 0-2.154-.141c-.034 0-.036-.214-.041-4.225C6.63.863 6.627.503 6.597.424a.585.585 0 0 0-.382-.372 1.437 1.437 0 0 0-.53-.031m1.325 10.45c.704.023 1.522.09 2.08.171.29.042.628.109.648.129a1.01 1.01 0 0 1-.061.225c-.559 1.638-2.611 4.718-3.664 5.497l-.116.086-.068-.046c-.229-.155-.687-.615-1.059-1.063-1.118-1.347-2.319-3.347-2.679-4.459-.086-.268-.096-.241.104-.288.599-.142 1.734-.247 2.905-.27.36-.006 1.486.004 1.91.018"/>
</svg>
