<svg xmlns="http://www.w3.org/2000/svg" width="16" height="10">
  <path d="M.787.775c-.291.114-.53.358-.562.573-.039.263.069.477.83 1.63 2.437 3.697 4.639 5.833 6.403 6.21.251.054.775.061 1.021.014.422-.081.962-.306 1.432-.598 1.458-.903 3.217-2.869 5.034-5.625.793-1.203.89-1.4.818-1.668-.103-.386-.681-.699-1.026-.554-.163.068-.279.204-.566.664-1.534 2.459-3.299 4.614-4.584 5.596-.834.637-1.445.839-2 .663-1.121-.356-2.683-1.868-4.436-4.293a37.5 37.5 0 0 1-1.322-1.966c-.287-.46-.403-.596-.566-.664C1.141.706.944.713.787.775"/>
</svg>
