<!--
    DO NOT EDIT THIS FILE
    It's generated automatically by 'yarn sprite' command.
    You have to re-generate 'sprite.svg' every time you
    modifying icons in 'images/svg/' folder
    @preserve
-->
<svg xmlns="http://www.w3.org/2000/svg" xmlns:xlink="http://www.w3.org/1999/xlink"><symbol viewBox="0 0 16 16" id="svg-add" xmlns="http://www.w3.org/2000/svg"><path fill-rule="evenodd" d="M7.04 3.52v3.52H0v1.92h7.04V16h1.92V8.96H16V7.04H8.96V0H7.04v3.52"/></symbol><symbol viewBox="0 0 18 18" id="svg-checkbox-empty" xmlns="http://www.w3.org/2000/svg"><path fill-rule="evenodd" d="M2.07.26C1.322.335.731.743.437 1.387.242 1.815.255 1.261.255 9c0 7.739-.013 7.185.182 7.613.245.537.741.943 1.333 1.091.246.061 14.214.061 14.46 0a2.027 2.027 0 0 0 1.474-1.474c.061-.246.061-14.214 0-14.46A1.999 1.999 0 0 0 16.605.434c-.407-.188.112-.176-7.47-.181A1190.7 1190.7 0 0 0 2.07.26M15.81 9v6.81H2.19V2.19h13.62V9"/></symbol><symbol viewBox="0 0 18 18" id="svg-checkbox-filled" xmlns="http://www.w3.org/2000/svg"><path fill-rule="evenodd" d="M2.07.26C1.322.335.731.743.437 1.387.242 1.815.255 1.261.255 9c0 7.739-.013 7.185.182 7.613.245.537.741.943 1.333 1.091.246.061 14.214.061 14.46 0a2.027 2.027 0 0 0 1.474-1.474c.061-.246.061-14.214 0-14.46A1.999 1.999 0 0 0 16.605.434c-.407-.188.112-.176-7.47-.181A1190.7 1190.7 0 0 0 2.07.26M15.81 9v6.81H2.19V2.19h13.62V9m-5.558-1.087L7.05 11.115 5.798 9.864 4.545 8.613l-.693.685-.694.685 1.939 1.939 1.938 1.938 3.893-3.893 3.892-3.892-.683-.683-.682-.682-3.203 3.203"/></symbol><symbol viewBox="0 0 22 22" id="svg-radio-empty" xmlns="http://www.w3.org/2000/svg"><path fill-rule="evenodd" d="M9.973.553c-3.241.312-6.196 2.164-7.928 4.97A10.603 10.603 0 0 0 .569 9.81a13.139 13.139 0 0 0 0 2.38 10.484 10.484 0 0 0 1.681 4.598c.421.631.696.97 1.232 1.522a9.885 9.885 0 0 0 1.695 1.415c1.339.898 2.811 1.455 4.485 1.696.522.075 2.277.063 2.805-.019 1.634-.256 3.047-.8 4.357-1.678a9.865 9.865 0 0 0 1.694-1.414 9.15 9.15 0 0 0 1.231-1.521c.855-1.281 1.401-2.707 1.653-4.322.082-.528.094-2.283.019-2.805-.241-1.674-.798-3.146-1.696-4.485A10.477 10.477 0 0 0 11.972.551a15.326 15.326 0 0 0-1.999.002m2.274 2.143a8.295 8.295 0 0 1 4.596 2.288 7.899 7.899 0 0 1 1.694 2.331 8.386 8.386 0 0 1-.82 8.721 10.485 10.485 0 0 1-1.366 1.437 8.723 8.723 0 0 1-1.64 1.054 8.343 8.343 0 0 1-7.422 0 8.302 8.302 0 0 1-3.825-3.842 8.064 8.064 0 0 1-.775-2.475c-.09-.585-.09-1.835 0-2.42.142-.922.367-1.64.775-2.475a8.257 8.257 0 0 1 3.851-3.851c.302-.148.699-.321.88-.384a9.671 9.671 0 0 1 2.145-.454c.335-.031 1.534.013 1.907.07"/></symbol><symbol viewBox="0 0 22 22" id="svg-radio-filled" xmlns="http://www.w3.org/2000/svg"><path fill-rule="evenodd" d="M9.973.553c-3.241.312-6.196 2.164-7.928 4.97A10.603 10.603 0 0 0 .569 9.81a13.139 13.139 0 0 0 0 2.38 10.484 10.484 0 0 0 1.681 4.598c.421.631.696.97 1.232 1.522a9.885 9.885 0 0 0 1.695 1.415c1.339.898 2.811 1.455 4.485 1.696.522.075 2.277.063 2.805-.019 1.634-.256 3.047-.8 4.357-1.678a9.865 9.865 0 0 0 1.694-1.414 9.15 9.15 0 0 0 1.231-1.521c.855-1.281 1.401-2.707 1.653-4.322.082-.528.094-2.283.019-2.805-.241-1.674-.798-3.146-1.696-4.485A10.477 10.477 0 0 0 11.972.551a15.326 15.326 0 0 0-1.999.002m2.274 2.143a8.295 8.295 0 0 1 4.596 2.288 7.899 7.899 0 0 1 1.694 2.331 8.386 8.386 0 0 1-.82 8.721 10.485 10.485 0 0 1-1.366 1.437 8.723 8.723 0 0 1-1.64 1.054 8.343 8.343 0 0 1-7.422 0 8.302 8.302 0 0 1-3.825-3.842 8.064 8.064 0 0 1-.775-2.475c-.09-.585-.09-1.835 0-2.42.142-.922.367-1.64.775-2.475a8.257 8.257 0 0 1 3.851-3.851c.302-.148.699-.321.88-.384a9.671 9.671 0 0 1 2.145-.454c.335-.031 1.534.013 1.907.07m-2.035 3.119a5.243 5.243 0 0 0-4.18 3.511c-.215.647-.257.918-.257 1.674 0 .756.042 1.027.257 1.674a5.052 5.052 0 0 0 1.264 2.03c.751.751 1.635 1.225 2.714 1.455.44.093 1.54.093 1.98 0 1.079-.23 1.963-.704 2.714-1.455.751-.751 1.225-1.635 1.455-2.714.093-.44.093-1.54 0-1.98-.226-1.057-.7-1.954-1.419-2.679a5.05 5.05 0 0 0-1.677-1.154 5.427 5.427 0 0 0-2.851-.362"/></symbol><symbol viewBox="0 0 14 2" id="svg-remove" xmlns="http://www.w3.org/2000/svg"><path fill-rule="evenodd" d="M0 .992v.991h14V0H0v.992"/></symbol><symbol viewBox="0 0 20 20" id="svg-search" xmlns="http://www.w3.org/2000/svg"><path fill-rule="evenodd" d="M6.717.035a7.43 7.43 0 0 0-4.534 2.148 7.353 7.353 0 0 0-2.173 5.5c.023.614.081 1.03.225 1.594a7.454 7.454 0 0 0 4.516 5.087 7.39 7.39 0 0 0 5.997-.289 6.258 6.258 0 0 0 1.115-.69l.358-.268c.032-.024.085.007.195.116l.151.148v.902l2.858 2.859L18.284 20l.858-.858.858-.859-2.858-2.858-2.859-2.858h-.902l-.148-.151c-.109-.11-.14-.163-.116-.195l.268-.358a6.34 6.34 0 0 0 .734-1.206c1.554-3.193.619-7.024-2.239-9.175A8.25 8.25 0 0 0 10 .457 8.906 8.906 0 0 0 8.517.082C8.105.019 7.12-.006 6.717.035M8.48 2.396c2.002.431 3.523 1.933 3.97 3.921.109.48.147 1.225.088 1.721a5.117 5.117 0 0 1-1.505 3.062c-.698.69-1.55 1.149-2.555 1.375-.283.063-.427.073-1.045.073-.616 0-.762-.01-1.042-.073a5.462 5.462 0 0 1-1.948-.852 6.167 6.167 0 0 1-1.199-1.2 5.466 5.466 0 0 1-.85-1.943c-.063-.283-.074-.432-.074-1.047-.001-.618.009-.761.072-1.044a5.517 5.517 0 0 1 .852-1.946c.257-.365.82-.931 1.18-1.187a5.352 5.352 0 0 1 2.226-.909c.41-.068 1.412-.041 1.83.049"/></symbol><symbol viewBox="0 0 21 21" id="svg-throbber-circle" xmlns="http://www.w3.org/2000/svg"><path fill-rule="evenodd" d="M9.818.024a10.503 10.503 0 0 0-5.049 1.701 9.774 9.774 0 0 0-1.655 1.354C1.488 4.706.49 6.699.135 9.03c-.065.422-.078.663-.08 1.435-.003.981.027 1.326.178 2.1.744 3.808 3.608 6.927 7.345 7.997 1.73.495 3.663.532 5.397.104 3.909-.966 6.881-3.978 7.768-7.873.173-.763.226-1.24.246-2.223l.018-.927-.101-.193c-.338-.638-1.208-.724-1.706-.17-.252.28-.296.474-.296 1.296.002 1.324-.214 2.204-.861 3.512-.507 1.024-.955 1.655-1.715 2.415a8.186 8.186 0 0 1-2.345 1.666c-1.143.55-2.258.814-3.448.815-2.753.003-5.519-1.504-7.055-3.846-.948-1.445-1.387-2.911-1.389-4.638-.002-1.38.248-2.504.813-3.657 1.271-2.597 3.864-4.38 6.874-4.728.112-.013.506-.026.875-.029.656-.004.674-.006.884-.103.414-.191.656-.547.656-.968 0-.41-.21-.719-.622-.914L11.358 0l-.683.006c-.375.004-.761.012-.857.018"/></symbol></svg>