<svg xmlns="http://www.w3.org/2000/svg" width="91.08px" height="20px" viewBox="0 0 91.08 20">
  <path fill="#524fff" d="M6.67,6.67h6.67c3.68,0,6.67,2.98,6.67,6.67l0,0c3.68,0,6.67-2.98,6.67-6.67C26.67,2.98,23.68,0,20,0h-6.67C9.65,0,6.67,2.98,6.67,6.67z"/>
	<path fill="#ff62af" d="M6.67,6.67C6.67,6.67,6.67,6.67,6.67,6.67c0,3.68,2.98,6.67,6.67,6.67H20c0,3.68-2.98,6.67-6.67,6.67H6.67C2.98,20,0,17.02,0,13.33C0,9.65,2.98,6.67,6.67,6.67z"/>
	<path fill="#101831" d="M51.11,13.91l3.05,5.84h4.31l-5.05-8.46l4.77-5.64H53.9l-3.38,4.23V0h-3.75v19.75h3.75v-5.08L51.11,13.91z M44.51,17.66c0.28-0.58,0.42-1.31,0.42-2.17c0-1.3-0.29-2.32-0.87-3.07c-0.58-0.77-1.61-1.28-3.07-1.52c-0.62-0.09-1.08-0.23-1.38-0.39c-0.3-0.19-0.45-0.45-0.45-0.79c0-0.43,0.15-0.73,0.45-0.9c0.3-0.17,0.8-0.25,1.49-0.25c0.77,0,1.41,0.06,1.92,0.17c0.53,0.11,1.01,0.24,1.44,0.37V5.87c-0.13-0.04-0.33-0.08-0.59-0.14c-0.24-0.06-0.52-0.1-0.82-0.14c-0.3-0.06-0.61-0.1-0.93-0.14c-0.32-0.04-0.62-0.06-0.9-0.06c-1.99,0-3.47,0.34-4.43,1.02c-0.96,0.68-1.44,1.81-1.44,3.39c0,1.2,0.29,2.16,0.87,2.88c0.6,0.71,1.63,1.2,3.07,1.47c0.71,0.13,1.18,0.31,1.41,0.54c0.24,0.23,0.37,0.55,0.37,0.99c0,0.49-0.23,0.81-0.68,0.96c-0.43,0.15-0.98,0.23-1.64,0.23c-0.66,0-1.29-0.06-1.89-0.17c-0.6-0.13-1.09-0.24-1.47-0.34v3.22c0.19,0.06,0.42,0.11,0.7,0.17c0.3,0.04,0.62,0.08,0.96,0.11c0.36,0.06,0.72,0.09,1.1,0.11c0.38,0.04,0.74,0.06,1.1,0.06c0.85,0,1.62-0.08,2.31-0.23c0.7-0.15,1.29-0.39,1.78-0.73C43.87,18.68,44.25,18.22,44.51,17.66zM59.6,19.75V5.64h3.75v14.1H59.6z M70.47,19.8c0.49-0.06,0.84-0.1,1.04-0.14v-3.13c-0.08,0.02-0.22,0.05-0.42,0.08c-0.19,0.02-0.39,0.03-0.59,0.03c-0.36,0-0.59-0.08-0.7-0.25c-0.11-0.19-0.17-0.51-0.17-0.96V0h-3.75v15.57c0,1.47,0.22,2.56,0.65,3.27c0.45,0.7,1.26,1.04,2.42,1.04C69.49,19.89,70,19.86,70.47,19.8z M78.56,19.66c-0.21,0.04-0.55,0.08-1.04,0.14c-0.47,0.06-0.98,0.08-1.52,0.08c-1.17,0-1.97-0.35-2.42-1.04c-0.43-0.71-0.65-1.81-0.65-3.27V0h3.75v15.43c0,0.45,0.06,0.77,0.17,0.96c0.11,0.17,0.35,0.25,0.7,0.25c0.21,0,0.4-0.01,0.59-0.03c0.21-0.04,0.35-0.07,0.42-0.08V19.66z M79.95,9.42c-0.26,0.98-0.39,2.19-0.39,3.64c0,1.35,0.09,2.48,0.28,3.39c0.19,0.88,0.48,1.59,0.87,2.12c0.39,0.53,0.88,0.9,1.47,1.13C82.76,19.9,83.44,20,84.23,20c0.73,0,1.39-0.12,1.97-0.37c0.58-0.26,1.1-0.61,1.55-1.04l0.28,1.16h3.05V0h-3.75v5.42h-0.48c-0.17-0.02-0.35-0.03-0.54-0.03c-1.18,0-2.21,0.13-3.07,0.39c-0.85,0.24-1.54,0.67-2.09,1.27C80.61,7.65,80.21,8.44,79.95,9.42z M86.07,16.61c-0.24,0.11-0.53,0.17-0.85,0.17c-0.34,0-0.63-0.05-0.87-0.14c-0.23-0.09-0.41-0.26-0.56-0.51c-0.15-0.26-0.26-0.62-0.34-1.07c-0.06-0.45-0.08-1.03-0.08-1.75c0-0.98,0.05-1.77,0.14-2.37c0.09-0.62,0.24-1.1,0.45-1.44c0.23-0.36,0.51-0.59,0.85-0.71c0.36-0.13,0.78-0.2,1.27-0.2c0.21,0,0.41,0.01,0.62,0.03c0.23,0.02,0.44,0.04,0.65,0.06v5.98c0,0.24-0.06,0.5-0.17,0.76c-0.09,0.24-0.23,0.47-0.42,0.68C86.55,16.31,86.33,16.48,86.07,16.61z M61.48,4.04c1.12,0,2.02-0.91,2.02-2.02c0-1.12-0.9-2.02-2.02-2.02s-2.02,0.91-2.02,2.02C59.46,3.14,60.36,4.04,61.48,4.04z"/>
</svg>
